<svg width="20" height="20" viewBox="0 0 20 20" fill="none" xmlns="http://www.w3.org/2000/svg">
<path fill-rule="evenodd" clip-rule="evenodd" d="M9.7541 -0.000244141C12.2284 -0.000244141 14.2459 2.00262 14.2728 4.47364L14.492 4.47466C17.254 4.47466 19.5 6.71966 19.5 9.47966V14.9957C19.5 17.7547 17.254 19.9997 14.492 19.9997H5.008C2.247 19.9997 0 17.7547 0 14.9957V9.47966C0 6.71966 2.247 4.47466 5.008 4.47466L5.212 4.47376L5.21834 4.27928C5.28114 3.14482 5.74837 2.10409 6.5501 1.31076C7.4081 0.459756 8.5601 0.0347559 9.7541 -0.000244141ZM14.492 5.97465L14.273 5.97376L14.2731 7.55575C14.2731 7.96975 13.9371 8.30576 13.5231 8.30576C13.1091 8.30576 12.7731 7.96975 12.7731 7.55575L12.773 5.97376H6.711L6.7111 7.55575C6.7111 7.96975 6.3751 8.30576 5.9611 8.30576C5.5471 8.30576 5.2111 7.96975 5.2111 7.55575L5.211 5.97376L5.008 5.97465C3.074 5.97465 1.5 7.54666 1.5 9.47966V14.9957C1.5 16.9277 3.074 18.4997 5.008 18.4997H14.492C16.426 18.4997 18 16.9277 18 14.9957V9.47966C18 7.54666 16.426 5.97465 14.492 5.97465ZM9.7511 1.49976C8.9401 1.52776 8.1801 1.80776 7.6061 2.37576C7.04043 2.9365 6.72338 3.67983 6.71143 4.47366L12.771 4.47376L12.768 4.34638C12.6759 2.76156 11.3586 1.49976 9.7511 1.49976Z" fill="#8D8598"/>
</svg>
