<svg width="21" height="20" viewBox="0 0 21 20" fill="none" xmlns="http://www.w3.org/2000/svg">
<path fill-rule="evenodd" clip-rule="evenodd" d="M11.6915 0C9.24551 0 7.25551 1.99 7.25551 4.436V5.368C7.25551 5.782 7.59151 6.118 8.00551 6.118C8.41951 6.118 8.75551 5.782 8.75551 5.368V4.436C8.75551 2.816 10.0725 1.5 11.6915 1.5H16.5665C18.1835 1.5 19.4995 2.816 19.4995 4.436V15.565C19.4995 17.184 18.1835 18.5 16.5665 18.5H11.6805C10.0685 18.5 8.75551 17.188 8.75551 15.576V14.633C8.75551 14.219 8.41951 13.883 8.00551 13.883C7.59151 13.883 7.25551 14.219 7.25551 14.633V15.576C7.25551 18.016 9.24151 20 11.6805 20H16.5665C19.0105 20 20.9995 18.011 20.9995 15.565V4.436C20.9995 1.99 19.0105 0 16.5665 0H11.6915ZM3.61141 6.554L0.683409 9.469C0.657288 9.49492 0.633898 9.52187 0.612492 9.55039L0.683409 9.469C0.647978 9.50393 0.61647 9.5421 0.589134 9.5828C0.577101 9.60125 0.565495 9.62032 0.554739 9.63992C0.546011 9.65523 0.537977 9.67122 0.530531 9.68746C0.524218 9.70182 0.518156 9.71618 0.512541 9.73077C0.505001 9.74977 0.4984 9.76931 0.492609 9.78911C0.488245 9.8047 0.484234 9.82026 0.480719 9.836C0.476252 9.8551 0.472733 9.87432 0.469967 9.89368C0.468401 9.90627 0.466869 9.91947 0.465687 9.93276C0.463396 9.95557 0.46241 9.97774 0.46241 10L0.467508 10.062L0.469561 10.1017C0.469791 10.1034 0.470026 10.1051 0.470268 10.1068L0.46241 10C0.46241 10.0555 0.468555 10.1105 0.480503 10.1639C0.484234 10.1797 0.488245 10.1953 0.492735 10.2107C0.498398 10.2307 0.505001 10.2502 0.512396 10.2695C0.518158 10.2838 0.524218 10.2982 0.530704 10.3123C0.537977 10.3288 0.546009 10.3448 0.554617 10.3605C0.565495 10.3797 0.577101 10.3988 0.589508 10.4172C0.596527 10.4282 0.604227 10.439 0.612226 10.4497C0.636036 10.481 0.66198 10.5104 0.690054 10.5377L3.61141 13.447C3.75741 13.593 3.94941 13.666 4.14041 13.666C4.33241 13.666 4.52541 13.593 4.67141 13.445C4.96341 13.151 4.96241 12.677 4.66941 12.385L3.02951 10.75H13.2537C13.6677 10.75 14.0037 10.414 14.0037 10C14.0037 9.586 13.6677 9.25 13.2537 9.25H3.02751L4.66941 7.616C4.96241 7.324 4.96441 6.85 4.67141 6.556C4.37941 6.262 3.90541 6.262 3.61141 6.554Z" fill="#8D8598"/>
</svg>
